<svg xmlns="http://www.w3.org/2000/svg" xmlns:xlink="http://www.w3.org/1999/xlink" width="1024" height="1024" viewBox="0 0 1024 1024">
    <defs>
        <clipPath id="clip-Zeichenfläche_4">
            <rect width="1024" height="1024" />
        </clipPath>
    </defs>
    <g id="Zeichenfläche_4" data-name="Zeichenfläche – 4" clip-path="url(#clip-Zeichenfläche_4)">
        <circle id="Ellipse_3" data-name="Ellipse 3" cx="512" cy="512" r="512" fill="#0e1114" />
        <path id="Pfad_3" data-name="Pfad 3" d="M232.813-12.3,50.391-95.508v-31.641l182.422-87.3v46.484L102.734-112.3v1.172L232.813-58.789ZM420.352-7.227Q399.453,4.883,360,4.883q-46.094,0-74.609-27.93t-28.516-72.07q0-50.977,30.566-80.371t81.738-29.395q35.352,0,51.172,9.375v52.344a70.358,70.358,0,0,0-43.164-14.453q-26.563,0-42.09,15.527T319.57-99.219q0,26.563,14.844,41.7t40.82,15.137q23.047,0,45.117-14.453Zm82.93-16.016H502.5V0H440.781V-296.094H502.5v126.172h.781q22.852-34.961,65.039-34.961,38.672,0,59.57,26.563t20.9,72.656q0,50-24.414,80.273T559.141,4.883Q522.227,4.883,503.281-23.242Zm-1.758-84.375v20.508q0,19.336,11.133,32.031t28.516,12.7q21.094,0,32.715-16.309t11.621-46.191q0-24.8-10.645-38.77t-30.371-13.965A39.235,39.235,0,0,0,513.73-143.75Q501.523-129.883,501.523-107.617Zm374.141,9.57-182.422,83.2V-61.133l130.469-52.148v-.781L693.242-169.922v-46.484l182.422,86.719Z" transform="translate(49 610)" fill="#16f8b4" />
    </g>
</svg>
  